<mxfile host="app.diagrams.net" modified="2024-01-08T08:47:02.968Z" agent="Mozilla/5.0 (Windows NT 10.0; Win64; x64) AppleWebKit/537.36 (KHTML, like Gecko) Chrome/120.0.0.0 Safari/537.36" etag="MJnu1FFrBhoekvlWzWfA" version="22.1.17" type="github">
  <diagram id="R2lEEEUBdFMjLlhIrx00" name="Page-1">
    <mxGraphModel dx="1050" dy="557" grid="1" gridSize="10" guides="1" tooltips="1" connect="1" arrows="1" fold="1" page="1" pageScale="1" pageWidth="850" pageHeight="1100" math="0" shadow="0" extFonts="Permanent Marker^https://fonts.googleapis.com/css?family=Permanent+Marker">
      <root>
        <mxCell id="0" />
        <mxCell id="1" parent="0" />
        <mxCell id="kpMlG1sAVwpaGIiOpCB2-2" value="payment" style="rounded=0;whiteSpace=wrap;html=1;" vertex="1" parent="1">
          <mxGeometry x="162.5" y="209.5" width="70" height="20" as="geometry" />
        </mxCell>
        <mxCell id="kpMlG1sAVwpaGIiOpCB2-3" value="access_validity" style="rounded=0;whiteSpace=wrap;html=1;" vertex="1" parent="1">
          <mxGeometry x="657.5" y="497.5" width="90" height="20" as="geometry" />
        </mxCell>
        <mxCell id="kpMlG1sAVwpaGIiOpCB2-4" value="exam_division" style="rounded=0;whiteSpace=wrap;html=1;" vertex="1" parent="1">
          <mxGeometry x="293.5" y="1040" width="80" height="20" as="geometry" />
        </mxCell>
        <mxCell id="kpMlG1sAVwpaGIiOpCB2-5" value="bank_diposit" style="rounded=0;whiteSpace=wrap;html=1;direction=west;" vertex="1" parent="1">
          <mxGeometry x="57.5" y="170" width="80" height="20" as="geometry" />
        </mxCell>
        <mxCell id="kpMlG1sAVwpaGIiOpCB2-6" value="student" style="rounded=0;whiteSpace=wrap;html=1;" vertex="1" parent="1">
          <mxGeometry x="177.5" y="340" width="80" height="20" as="geometry" />
        </mxCell>
        <mxCell id="kpMlG1sAVwpaGIiOpCB2-8" value="exam" style="rounded=0;whiteSpace=wrap;html=1;" vertex="1" parent="1">
          <mxGeometry x="408" y="219.5" width="60" height="30.5" as="geometry" />
        </mxCell>
        <mxCell id="kpMlG1sAVwpaGIiOpCB2-9" value="admin" style="rounded=0;whiteSpace=wrap;html=1;" vertex="1" parent="1">
          <mxGeometry x="595.5" y="340" width="65" height="20" as="geometry" />
        </mxCell>
        <mxCell id="kpMlG1sAVwpaGIiOpCB2-10" value="faculty" style="rounded=0;whiteSpace=wrap;html=1;" vertex="1" parent="1">
          <mxGeometry x="318" y="780" width="75" height="20" as="geometry" />
        </mxCell>
        <mxCell id="kpMlG1sAVwpaGIiOpCB2-11" value="degree" style="rounded=0;whiteSpace=wrap;html=1;" vertex="1" parent="1">
          <mxGeometry x="212.5" y="567.5" width="70" height="20" as="geometry" />
        </mxCell>
        <mxCell id="kpMlG1sAVwpaGIiOpCB2-12" value="department" style="rounded=0;whiteSpace=wrap;html=1;" vertex="1" parent="1">
          <mxGeometry x="217.5" y="690" width="90" height="30" as="geometry" />
        </mxCell>
        <mxCell id="kpMlG1sAVwpaGIiOpCB2-13" value="cash" style="rounded=0;whiteSpace=wrap;html=1;" vertex="1" parent="1">
          <mxGeometry x="80" y="127" width="60" height="20" as="geometry" />
        </mxCell>
        <mxCell id="kpMlG1sAVwpaGIiOpCB2-14" value="lecturer" style="rounded=0;whiteSpace=wrap;html=1;" vertex="1" parent="1">
          <mxGeometry x="615" y="680" width="80" height="20" as="geometry" />
        </mxCell>
        <mxCell id="kpMlG1sAVwpaGIiOpCB2-16" value="phy_exam" style="rounded=0;whiteSpace=wrap;html=1;" vertex="1" parent="1">
          <mxGeometry x="640" y="180" width="80" height="20" as="geometry" />
        </mxCell>
        <mxCell id="kpMlG1sAVwpaGIiOpCB2-17" value="result" style="rounded=0;whiteSpace=wrap;html=1;" vertex="1" parent="1">
          <mxGeometry x="385" y="900" width="70" height="20" as="geometry" />
        </mxCell>
        <mxCell id="kpMlG1sAVwpaGIiOpCB2-19" value="d" style="ellipse;whiteSpace=wrap;html=1;aspect=fixed;" vertex="1" parent="1">
          <mxGeometry x="157.5" y="149" width="20" height="20" as="geometry" />
        </mxCell>
        <mxCell id="kpMlG1sAVwpaGIiOpCB2-21" value="" style="endArrow=none;html=1;rounded=0;exitX=0;exitY=0;exitDx=0;exitDy=0;entryX=1;entryY=0.5;entryDx=0;entryDy=0;" edge="1" parent="1" source="kpMlG1sAVwpaGIiOpCB2-19" target="kpMlG1sAVwpaGIiOpCB2-13">
          <mxGeometry width="50" height="50" relative="1" as="geometry">
            <mxPoint x="110" y="90" as="sourcePoint" />
            <mxPoint x="160" y="40" as="targetPoint" />
          </mxGeometry>
        </mxCell>
        <mxCell id="kpMlG1sAVwpaGIiOpCB2-22" value="" style="endArrow=none;html=1;rounded=0;exitX=0;exitY=0.5;exitDx=0;exitDy=0;" edge="1" parent="1" source="kpMlG1sAVwpaGIiOpCB2-5">
          <mxGeometry width="50" height="50" relative="1" as="geometry">
            <mxPoint x="122.5" y="140" as="sourcePoint" />
            <mxPoint x="160" y="160" as="targetPoint" />
          </mxGeometry>
        </mxCell>
        <mxCell id="kpMlG1sAVwpaGIiOpCB2-23" value="" style="endArrow=none;html=1;rounded=0;entryX=0.5;entryY=0;entryDx=0;entryDy=0;exitX=1;exitY=1;exitDx=0;exitDy=0;" edge="1" parent="1" source="kpMlG1sAVwpaGIiOpCB2-19" target="kpMlG1sAVwpaGIiOpCB2-2">
          <mxGeometry width="50" height="50" relative="1" as="geometry">
            <mxPoint x="190" y="120" as="sourcePoint" />
            <mxPoint x="210" y="50" as="targetPoint" />
          </mxGeometry>
        </mxCell>
        <mxCell id="kpMlG1sAVwpaGIiOpCB2-25" value="paid_by" style="rhombus;whiteSpace=wrap;html=1;" vertex="1" parent="1">
          <mxGeometry x="172.5" y="249.5" width="50" height="50" as="geometry" />
        </mxCell>
        <mxCell id="kpMlG1sAVwpaGIiOpCB2-26" value="registered_by" style="rhombus;whiteSpace=wrap;html=1;" vertex="1" parent="1">
          <mxGeometry x="425" y="10" width="110" height="61" as="geometry" />
        </mxCell>
        <mxCell id="kpMlG1sAVwpaGIiOpCB2-28" value="faces" style="rhombus;whiteSpace=wrap;html=1;" vertex="1" parent="1">
          <mxGeometry x="318" y="289.5" width="50" height="40" as="geometry" />
        </mxCell>
        <mxCell id="kpMlG1sAVwpaGIiOpCB2-29" value="enter" style="rhombus;whiteSpace=wrap;html=1;" vertex="1" parent="1">
          <mxGeometry x="535" y="860" width="65" height="60" as="geometry" />
        </mxCell>
        <mxCell id="kpMlG1sAVwpaGIiOpCB2-30" value="access" style="rhombus;whiteSpace=wrap;html=1;" vertex="1" parent="1">
          <mxGeometry x="600" y="517.5" width="65" height="50" as="geometry" />
        </mxCell>
        <mxCell id="kpMlG1sAVwpaGIiOpCB2-31" value="is_in" style="rhombus;whiteSpace=wrap;html=1;" vertex="1" parent="1">
          <mxGeometry x="242.5" y="630" width="45" height="42.5" as="geometry" />
        </mxCell>
        <mxCell id="kpMlG1sAVwpaGIiOpCB2-32" value="for" style="rhombus;whiteSpace=wrap;html=1;" vertex="1" parent="1">
          <mxGeometry x="340" y="420" width="45" height="40" as="geometry" />
        </mxCell>
        <mxCell id="kpMlG1sAVwpaGIiOpCB2-33" value="schedules" style="rhombus;whiteSpace=wrap;html=1;" vertex="1" parent="1">
          <mxGeometry x="593" y="219.5" width="67.5" height="60" as="geometry" />
        </mxCell>
        <mxCell id="kpMlG1sAVwpaGIiOpCB2-34" value="attends" style="rhombus;whiteSpace=wrap;html=1;" vertex="1" parent="1">
          <mxGeometry x="393" y="395" width="60" height="60" as="geometry" />
        </mxCell>
        <mxCell id="kpMlG1sAVwpaGIiOpCB2-36" value="goes" style="rhombus;whiteSpace=wrap;html=1;" vertex="1" parent="1">
          <mxGeometry x="307.5" y="940" width="52" height="60" as="geometry" />
        </mxCell>
        <mxCell id="kpMlG1sAVwpaGIiOpCB2-37" value="is_in" style="rhombus;whiteSpace=wrap;html=1;" vertex="1" parent="1">
          <mxGeometry x="237.5" y="770" width="50" height="40" as="geometry" />
        </mxCell>
        <mxCell id="kpMlG1sAVwpaGIiOpCB2-38" value="teaches" style="rhombus;whiteSpace=wrap;html=1;" vertex="1" parent="1">
          <mxGeometry x="530" y="607.5" width="60" height="50" as="geometry" />
        </mxCell>
        <mxCell id="kpMlG1sAVwpaGIiOpCB2-39" value="" style="endArrow=none;html=1;rounded=0;exitX=0.5;exitY=0;exitDx=0;exitDy=0;entryX=0.5;entryY=1;entryDx=0;entryDy=0;" edge="1" parent="1" source="kpMlG1sAVwpaGIiOpCB2-25" target="kpMlG1sAVwpaGIiOpCB2-2">
          <mxGeometry width="50" height="50" relative="1" as="geometry">
            <mxPoint x="240" y="150" as="sourcePoint" />
            <mxPoint x="290" y="100" as="targetPoint" />
          </mxGeometry>
        </mxCell>
        <mxCell id="kpMlG1sAVwpaGIiOpCB2-40" value="" style="endArrow=none;html=1;rounded=0;entryX=0.5;entryY=1;entryDx=0;entryDy=0;exitX=0.25;exitY=0;exitDx=0;exitDy=0;" edge="1" parent="1" source="kpMlG1sAVwpaGIiOpCB2-6" target="kpMlG1sAVwpaGIiOpCB2-25">
          <mxGeometry width="50" height="50" relative="1" as="geometry">
            <mxPoint x="230" y="240" as="sourcePoint" />
            <mxPoint x="280" y="190" as="targetPoint" />
          </mxGeometry>
        </mxCell>
        <mxCell id="kpMlG1sAVwpaGIiOpCB2-42" value="" style="endArrow=none;html=1;rounded=0;exitX=0;exitY=1;exitDx=0;exitDy=0;entryX=1;entryY=0;entryDx=0;entryDy=0;" edge="1" parent="1" source="kpMlG1sAVwpaGIiOpCB2-26" target="kpMlG1sAVwpaGIiOpCB2-6">
          <mxGeometry width="50" height="50" relative="1" as="geometry">
            <mxPoint x="205" y="260" as="sourcePoint" />
            <mxPoint x="290" y="310" as="targetPoint" />
          </mxGeometry>
        </mxCell>
        <mxCell id="kpMlG1sAVwpaGIiOpCB2-44" value="" style="endArrow=none;html=1;rounded=0;exitX=0;exitY=0.5;exitDx=0;exitDy=0;entryX=1;entryY=0.5;entryDx=0;entryDy=0;" edge="1" parent="1" source="kpMlG1sAVwpaGIiOpCB2-27" target="kpMlG1sAVwpaGIiOpCB2-11">
          <mxGeometry width="50" height="50" relative="1" as="geometry">
            <mxPoint x="367.17" y="480" as="sourcePoint" />
            <mxPoint x="260" y="540" as="targetPoint" />
          </mxGeometry>
        </mxCell>
        <mxCell id="kpMlG1sAVwpaGIiOpCB2-45" value="" style="endArrow=none;html=1;rounded=0;entryX=0.5;entryY=1;entryDx=0;entryDy=0;exitX=1;exitY=0;exitDx=0;exitDy=0;" edge="1" parent="1" source="kpMlG1sAVwpaGIiOpCB2-11" target="kpMlG1sAVwpaGIiOpCB2-32">
          <mxGeometry width="50" height="50" relative="1" as="geometry">
            <mxPoint x="170" y="470" as="sourcePoint" />
            <mxPoint x="307.5" y="340" as="targetPoint" />
          </mxGeometry>
        </mxCell>
        <mxCell id="kpMlG1sAVwpaGIiOpCB2-46" value="" style="endArrow=none;html=1;rounded=0;exitX=0.5;exitY=0;exitDx=0;exitDy=0;entryX=1;entryY=1;entryDx=0;entryDy=0;" edge="1" parent="1" source="kpMlG1sAVwpaGIiOpCB2-32" target="kpMlG1sAVwpaGIiOpCB2-6">
          <mxGeometry width="50" height="50" relative="1" as="geometry">
            <mxPoint x="304.67" y="330" as="sourcePoint" />
            <mxPoint x="180" y="290" as="targetPoint" />
          </mxGeometry>
        </mxCell>
        <mxCell id="kpMlG1sAVwpaGIiOpCB2-47" value="" style="endArrow=none;html=1;rounded=0;entryX=0.5;entryY=1;entryDx=0;entryDy=0;exitX=0.5;exitY=0;exitDx=0;exitDy=0;" edge="1" parent="1" source="kpMlG1sAVwpaGIiOpCB2-30" target="kpMlG1sAVwpaGIiOpCB2-9">
          <mxGeometry width="50" height="50" relative="1" as="geometry">
            <mxPoint x="55" y="330" as="sourcePoint" />
            <mxPoint x="105" y="280" as="targetPoint" />
          </mxGeometry>
        </mxCell>
        <mxCell id="kpMlG1sAVwpaGIiOpCB2-48" value="" style="endArrow=none;html=1;rounded=0;entryX=1;entryY=0;entryDx=0;entryDy=0;exitX=0;exitY=1;exitDx=0;exitDy=0;" edge="1" parent="1" source="kpMlG1sAVwpaGIiOpCB2-3" target="kpMlG1sAVwpaGIiOpCB2-30">
          <mxGeometry width="50" height="50" relative="1" as="geometry">
            <mxPoint x="85" y="470" as="sourcePoint" />
            <mxPoint x="135" y="420" as="targetPoint" />
          </mxGeometry>
        </mxCell>
        <mxCell id="kpMlG1sAVwpaGIiOpCB2-49" value="" style="endArrow=none;html=1;rounded=0;entryX=1;entryY=0.5;entryDx=0;entryDy=0;exitX=0;exitY=0.5;exitDx=0;exitDy=0;" edge="1" parent="1" source="kpMlG1sAVwpaGIiOpCB2-100" target="kpMlG1sAVwpaGIiOpCB2-27">
          <mxGeometry width="50" height="50" relative="1" as="geometry">
            <mxPoint x="300" y="482.5" as="sourcePoint" />
            <mxPoint x="320" y="460" as="targetPoint" />
          </mxGeometry>
        </mxCell>
        <mxCell id="kpMlG1sAVwpaGIiOpCB2-50" value="" style="endArrow=none;html=1;rounded=0;entryX=1;entryY=0;entryDx=0;entryDy=0;exitX=0;exitY=1;exitDx=0;exitDy=0;" edge="1" parent="1" source="kpMlG1sAVwpaGIiOpCB2-8" target="kpMlG1sAVwpaGIiOpCB2-28">
          <mxGeometry width="50" height="50" relative="1" as="geometry">
            <mxPoint x="450" y="130" as="sourcePoint" />
            <mxPoint x="529.33" y="250" as="targetPoint" />
          </mxGeometry>
        </mxCell>
        <mxCell id="kpMlG1sAVwpaGIiOpCB2-51" value="" style="endArrow=none;html=1;rounded=0;entryX=1;entryY=0;entryDx=0;entryDy=0;exitX=0;exitY=0.5;exitDx=0;exitDy=0;" edge="1" parent="1" source="kpMlG1sAVwpaGIiOpCB2-166" target="kpMlG1sAVwpaGIiOpCB2-55">
          <mxGeometry width="50" height="50" relative="1" as="geometry">
            <mxPoint x="680" y="100" as="sourcePoint" />
            <mxPoint x="670" y="250" as="targetPoint" />
          </mxGeometry>
        </mxCell>
        <mxCell id="kpMlG1sAVwpaGIiOpCB2-52" value="" style="endArrow=none;html=1;rounded=0;exitX=0;exitY=0.5;exitDx=0;exitDy=0;entryX=1;entryY=0.5;entryDx=0;entryDy=0;" edge="1" parent="1" source="kpMlG1sAVwpaGIiOpCB2-16" target="kpMlG1sAVwpaGIiOpCB2-55">
          <mxGeometry width="50" height="50" relative="1" as="geometry">
            <mxPoint x="705" y="209.67000000000002" as="sourcePoint" />
            <mxPoint x="690" y="240" as="targetPoint" />
          </mxGeometry>
        </mxCell>
        <mxCell id="kpMlG1sAVwpaGIiOpCB2-53" value="" style="endArrow=none;html=1;rounded=0;exitX=1;exitY=0.5;exitDx=0;exitDy=0;entryX=0;entryY=0;entryDx=0;entryDy=0;" edge="1" parent="1" source="kpMlG1sAVwpaGIiOpCB2-100" target="kpMlG1sAVwpaGIiOpCB2-38">
          <mxGeometry width="50" height="50" relative="1" as="geometry">
            <mxPoint x="370" y="482.5" as="sourcePoint" />
            <mxPoint x="430" y="483" as="targetPoint" />
          </mxGeometry>
        </mxCell>
        <mxCell id="kpMlG1sAVwpaGIiOpCB2-54" value="" style="endArrow=none;html=1;rounded=0;exitX=1;exitY=1;exitDx=0;exitDy=0;entryX=0;entryY=0;entryDx=0;entryDy=0;" edge="1" parent="1" source="kpMlG1sAVwpaGIiOpCB2-38" target="kpMlG1sAVwpaGIiOpCB2-14">
          <mxGeometry width="50" height="50" relative="1" as="geometry">
            <mxPoint x="460" y="535" as="sourcePoint" />
            <mxPoint x="510" y="485" as="targetPoint" />
          </mxGeometry>
        </mxCell>
        <mxCell id="kpMlG1sAVwpaGIiOpCB2-55" value="d" style="ellipse;whiteSpace=wrap;html=1;aspect=fixed;" vertex="1" parent="1">
          <mxGeometry x="568" y="167" width="22" height="22" as="geometry" />
        </mxCell>
        <mxCell id="kpMlG1sAVwpaGIiOpCB2-56" value="" style="endArrow=none;html=1;rounded=0;exitX=0;exitY=0.5;exitDx=0;exitDy=0;entryX=1;entryY=0.25;entryDx=0;entryDy=0;" edge="1" parent="1" source="kpMlG1sAVwpaGIiOpCB2-55" target="kpMlG1sAVwpaGIiOpCB2-8">
          <mxGeometry width="50" height="50" relative="1" as="geometry">
            <mxPoint x="580" y="50" as="sourcePoint" />
            <mxPoint x="470" y="140" as="targetPoint" />
          </mxGeometry>
        </mxCell>
        <mxCell id="kpMlG1sAVwpaGIiOpCB2-61" value="" style="endArrow=none;html=1;rounded=0;exitX=1;exitY=0.5;exitDx=0;exitDy=0;entryX=1;entryY=0.5;entryDx=0;entryDy=0;edgeStyle=orthogonalEdgeStyle;" edge="1" parent="1" source="kpMlG1sAVwpaGIiOpCB2-26" target="kpMlG1sAVwpaGIiOpCB2-9">
          <mxGeometry width="50" height="50" relative="1" as="geometry">
            <mxPoint x="641.5" y="39.5" as="sourcePoint" />
            <mxPoint x="746.5" y="346" as="targetPoint" />
            <Array as="points">
              <mxPoint x="830" y="40" />
              <mxPoint x="830" y="346" />
              <mxPoint x="661" y="346" />
            </Array>
          </mxGeometry>
        </mxCell>
        <mxCell id="kpMlG1sAVwpaGIiOpCB2-62" value="" style="endArrow=none;html=1;rounded=0;exitX=0.5;exitY=0;exitDx=0;exitDy=0;entryX=0.75;entryY=1;entryDx=0;entryDy=0;" edge="1" parent="1" source="kpMlG1sAVwpaGIiOpCB2-31" target="kpMlG1sAVwpaGIiOpCB2-11">
          <mxGeometry width="50" height="50" relative="1" as="geometry">
            <mxPoint x="167.5" y="470" as="sourcePoint" />
            <mxPoint x="217.5" y="420" as="targetPoint" />
          </mxGeometry>
        </mxCell>
        <mxCell id="kpMlG1sAVwpaGIiOpCB2-63" value="" style="endArrow=none;html=1;rounded=0;exitX=0.5;exitY=0;exitDx=0;exitDy=0;entryX=0.5;entryY=1;entryDx=0;entryDy=0;" edge="1" parent="1" source="kpMlG1sAVwpaGIiOpCB2-12" target="kpMlG1sAVwpaGIiOpCB2-31">
          <mxGeometry width="50" height="50" relative="1" as="geometry">
            <mxPoint x="140" y="390" as="sourcePoint" />
            <mxPoint x="190" y="340" as="targetPoint" />
          </mxGeometry>
        </mxCell>
        <mxCell id="kpMlG1sAVwpaGIiOpCB2-64" value="" style="endArrow=none;html=1;rounded=0;entryX=0.5;entryY=1;entryDx=0;entryDy=0;exitX=0.5;exitY=0;exitDx=0;exitDy=0;" edge="1" parent="1" source="kpMlG1sAVwpaGIiOpCB2-37" target="kpMlG1sAVwpaGIiOpCB2-12">
          <mxGeometry width="50" height="50" relative="1" as="geometry">
            <mxPoint x="410" y="160" as="sourcePoint" />
            <mxPoint x="70" y="420" as="targetPoint" />
          </mxGeometry>
        </mxCell>
        <mxCell id="kpMlG1sAVwpaGIiOpCB2-65" value="" style="endArrow=none;html=1;rounded=0;exitX=0;exitY=0.5;exitDx=0;exitDy=0;entryX=1;entryY=0.5;entryDx=0;entryDy=0;" edge="1" parent="1" source="kpMlG1sAVwpaGIiOpCB2-10" target="kpMlG1sAVwpaGIiOpCB2-37">
          <mxGeometry width="50" height="50" relative="1" as="geometry">
            <mxPoint x="55" y="530" as="sourcePoint" />
            <mxPoint x="105" y="480" as="targetPoint" />
          </mxGeometry>
        </mxCell>
        <mxCell id="kpMlG1sAVwpaGIiOpCB2-69" style="edgeStyle=orthogonalEdgeStyle;rounded=0;orthogonalLoop=1;jettySize=auto;html=1;exitX=0.5;exitY=1;exitDx=0;exitDy=0;" edge="1" parent="1">
          <mxGeometry relative="1" as="geometry">
            <mxPoint x="717.5" y="110" as="sourcePoint" />
            <mxPoint x="717.5" y="110" as="targetPoint" />
          </mxGeometry>
        </mxCell>
        <mxCell id="kpMlG1sAVwpaGIiOpCB2-70" value="" style="endArrow=none;html=1;rounded=0;entryX=0.25;entryY=1;entryDx=0;entryDy=0;exitX=1;exitY=0;exitDx=0;exitDy=0;" edge="1" parent="1" source="kpMlG1sAVwpaGIiOpCB2-29" target="kpMlG1sAVwpaGIiOpCB2-14">
          <mxGeometry width="50" height="50" relative="1" as="geometry">
            <mxPoint x="762" y="680" as="sourcePoint" />
            <mxPoint x="760" y="570" as="targetPoint" />
          </mxGeometry>
        </mxCell>
        <mxCell id="kpMlG1sAVwpaGIiOpCB2-71" value="" style="endArrow=none;html=1;rounded=0;entryX=0;entryY=1;entryDx=0;entryDy=0;exitX=1;exitY=0;exitDx=0;exitDy=0;" edge="1" parent="1" source="kpMlG1sAVwpaGIiOpCB2-36" target="kpMlG1sAVwpaGIiOpCB2-17">
          <mxGeometry width="50" height="50" relative="1" as="geometry">
            <mxPoint x="582" y="830" as="sourcePoint" />
            <mxPoint x="580" y="720" as="targetPoint" />
          </mxGeometry>
        </mxCell>
        <mxCell id="kpMlG1sAVwpaGIiOpCB2-72" value="" style="endArrow=none;html=1;rounded=0;entryX=0;entryY=1;entryDx=0;entryDy=0;exitX=1;exitY=0.5;exitDx=0;exitDy=0;" edge="1" parent="1" source="kpMlG1sAVwpaGIiOpCB2-17" target="kpMlG1sAVwpaGIiOpCB2-29">
          <mxGeometry width="50" height="50" relative="1" as="geometry">
            <mxPoint x="621" y="650" as="sourcePoint" />
            <mxPoint x="619" y="540" as="targetPoint" />
          </mxGeometry>
        </mxCell>
        <mxCell id="kpMlG1sAVwpaGIiOpCB2-73" value="" style="endArrow=none;html=1;rounded=0;entryX=0.5;entryY=1;entryDx=0;entryDy=0;exitX=0.5;exitY=0;exitDx=0;exitDy=0;" edge="1" parent="1" source="kpMlG1sAVwpaGIiOpCB2-4" target="kpMlG1sAVwpaGIiOpCB2-36">
          <mxGeometry width="50" height="50" relative="1" as="geometry">
            <mxPoint x="425" y="715" as="sourcePoint" />
            <mxPoint x="498" y="670" as="targetPoint" />
          </mxGeometry>
        </mxCell>
        <mxCell id="kpMlG1sAVwpaGIiOpCB2-74" value="" style="endArrow=none;html=1;rounded=0;exitX=0.5;exitY=0;exitDx=0;exitDy=0;entryX=0.5;entryY=1;entryDx=0;entryDy=0;" edge="1" parent="1" source="kpMlG1sAVwpaGIiOpCB2-9" target="kpMlG1sAVwpaGIiOpCB2-33">
          <mxGeometry width="50" height="50" relative="1" as="geometry">
            <mxPoint x="100" y="444" as="sourcePoint" />
            <mxPoint x="150" y="394" as="targetPoint" />
          </mxGeometry>
        </mxCell>
        <mxCell id="kpMlG1sAVwpaGIiOpCB2-75" value="" style="endArrow=none;html=1;rounded=0;entryX=1;entryY=0.5;entryDx=0;entryDy=0;exitX=0;exitY=0;exitDx=0;exitDy=0;" edge="1" parent="1" source="kpMlG1sAVwpaGIiOpCB2-33" target="kpMlG1sAVwpaGIiOpCB2-8">
          <mxGeometry width="50" height="50" relative="1" as="geometry">
            <mxPoint x="230" y="410" as="sourcePoint" />
            <mxPoint x="285.5" y="416" as="targetPoint" />
          </mxGeometry>
        </mxCell>
        <mxCell id="kpMlG1sAVwpaGIiOpCB2-77" value="" style="endArrow=none;html=1;rounded=0;entryX=1;entryY=0.5;entryDx=0;entryDy=0;exitX=0;exitY=1;exitDx=0;exitDy=0;" edge="1" parent="1" source="kpMlG1sAVwpaGIiOpCB2-28" target="kpMlG1sAVwpaGIiOpCB2-6">
          <mxGeometry width="50" height="50" relative="1" as="geometry">
            <mxPoint x="265" y="320" as="sourcePoint" />
            <mxPoint x="315" y="279" as="targetPoint" />
          </mxGeometry>
        </mxCell>
        <mxCell id="kpMlG1sAVwpaGIiOpCB2-78" value="" style="endArrow=none;html=1;rounded=0;entryX=0;entryY=0;entryDx=0;entryDy=0;exitX=1;exitY=0.75;exitDx=0;exitDy=0;" edge="1" parent="1" source="kpMlG1sAVwpaGIiOpCB2-6" target="kpMlG1sAVwpaGIiOpCB2-34">
          <mxGeometry width="50" height="50" relative="1" as="geometry">
            <mxPoint x="260" y="300" as="sourcePoint" />
            <mxPoint x="440" y="320" as="targetPoint" />
          </mxGeometry>
        </mxCell>
        <mxCell id="kpMlG1sAVwpaGIiOpCB2-79" value="" style="endArrow=none;html=1;rounded=0;entryX=0.25;entryY=0;entryDx=0;entryDy=0;exitX=0.5;exitY=1;exitDx=0;exitDy=0;" edge="1" parent="1" source="kpMlG1sAVwpaGIiOpCB2-34" target="kpMlG1sAVwpaGIiOpCB2-100">
          <mxGeometry width="50" height="50" relative="1" as="geometry">
            <mxPoint x="320" y="420" as="sourcePoint" />
            <mxPoint x="335" y="470" as="targetPoint" />
          </mxGeometry>
        </mxCell>
        <mxCell id="kpMlG1sAVwpaGIiOpCB2-80" value="" style="endArrow=none;html=1;rounded=0;entryX=0.25;entryY=0;entryDx=0;entryDy=0;exitX=0.5;exitY=1;exitDx=0;exitDy=0;" edge="1" parent="1" source="kpMlG1sAVwpaGIiOpCB2-30" target="kpMlG1sAVwpaGIiOpCB2-14">
          <mxGeometry width="50" height="50" relative="1" as="geometry">
            <mxPoint x="452" y="600" as="sourcePoint" />
            <mxPoint x="543" y="580" as="targetPoint" />
          </mxGeometry>
        </mxCell>
        <mxCell id="kpMlG1sAVwpaGIiOpCB2-27" value="has" style="rhombus;whiteSpace=wrap;html=1;" vertex="1" parent="1">
          <mxGeometry x="318" y="557.5" width="50" height="40" as="geometry" />
        </mxCell>
        <mxCell id="kpMlG1sAVwpaGIiOpCB2-97" style="edgeStyle=orthogonalEdgeStyle;rounded=0;orthogonalLoop=1;jettySize=auto;html=1;exitX=0.5;exitY=1;exitDx=0;exitDy=0;" edge="1" parent="1">
          <mxGeometry relative="1" as="geometry">
            <mxPoint x="335" y="495" as="sourcePoint" />
            <mxPoint x="335" y="495" as="targetPoint" />
          </mxGeometry>
        </mxCell>
        <mxCell id="kpMlG1sAVwpaGIiOpCB2-100" value="module" style="rounded=0;whiteSpace=wrap;html=1;" vertex="1" parent="1">
          <mxGeometry x="408" y="567.5" width="70" height="20" as="geometry" />
        </mxCell>
        <mxCell id="kpMlG1sAVwpaGIiOpCB2-102" value="email" style="ellipse;whiteSpace=wrap;html=1;align=center;" vertex="1" parent="1">
          <mxGeometry x="92.5" y="440" width="80" height="30" as="geometry" />
        </mxCell>
        <mxCell id="kpMlG1sAVwpaGIiOpCB2-103" value="BOD" style="ellipse;whiteSpace=wrap;html=1;align=center;" vertex="1" parent="1">
          <mxGeometry x="67.5" y="400" width="82.5" height="30" as="geometry" />
        </mxCell>
        <mxCell id="kpMlG1sAVwpaGIiOpCB2-105" value="address" style="ellipse;whiteSpace=wrap;html=1;align=center;" vertex="1" parent="1">
          <mxGeometry x="242.5" y="420" width="87.5" height="30" as="geometry" />
        </mxCell>
        <mxCell id="kpMlG1sAVwpaGIiOpCB2-106" value="&lt;u&gt;student_id&lt;/u&gt;" style="ellipse;whiteSpace=wrap;html=1;align=center;" vertex="1" parent="1">
          <mxGeometry x="20" y="355" width="100" height="30" as="geometry" />
        </mxCell>
        <mxCell id="kpMlG1sAVwpaGIiOpCB2-107" value="NIC" style="ellipse;whiteSpace=wrap;html=1;align=center;" vertex="1" parent="1">
          <mxGeometry x="42.5" y="325" width="77.5" height="21" as="geometry" />
        </mxCell>
        <mxCell id="kpMlG1sAVwpaGIiOpCB2-108" value="sname" style="ellipse;whiteSpace=wrap;html=1;align=center;" vertex="1" parent="1">
          <mxGeometry x="60" y="299.5" width="80" height="20" as="geometry" />
        </mxCell>
        <mxCell id="kpMlG1sAVwpaGIiOpCB2-110" value="age" style="ellipse;whiteSpace=wrap;html=1;align=center;dashed=1;" vertex="1" parent="1">
          <mxGeometry x="232.5" y="385" width="75" height="25" as="geometry" />
        </mxCell>
        <mxCell id="kpMlG1sAVwpaGIiOpCB2-111" value="phno" style="ellipse;shape=doubleEllipse;margin=3;whiteSpace=wrap;html=1;align=center;" vertex="1" parent="1">
          <mxGeometry x="179" y="440" width="77" height="30" as="geometry" />
        </mxCell>
        <mxCell id="kpMlG1sAVwpaGIiOpCB2-112" value="" style="endArrow=none;html=1;rounded=0;exitX=0.5;exitY=0;exitDx=0;exitDy=0;entryX=0.25;entryY=1;entryDx=0;entryDy=0;" edge="1" parent="1" source="kpMlG1sAVwpaGIiOpCB2-111" target="kpMlG1sAVwpaGIiOpCB2-6">
          <mxGeometry width="50" height="50" relative="1" as="geometry">
            <mxPoint x="109.5" y="410" as="sourcePoint" />
            <mxPoint x="159.5" y="360" as="targetPoint" />
          </mxGeometry>
        </mxCell>
        <mxCell id="kpMlG1sAVwpaGIiOpCB2-113" value="" style="endArrow=none;html=1;rounded=0;exitX=0.5;exitY=0;exitDx=0;exitDy=0;entryX=0.75;entryY=1;entryDx=0;entryDy=0;" edge="1" parent="1" source="kpMlG1sAVwpaGIiOpCB2-110" target="kpMlG1sAVwpaGIiOpCB2-6">
          <mxGeometry width="50" height="50" relative="1" as="geometry">
            <mxPoint x="150" y="425" as="sourcePoint" />
            <mxPoint x="200" y="375" as="targetPoint" />
          </mxGeometry>
        </mxCell>
        <mxCell id="kpMlG1sAVwpaGIiOpCB2-114" value="" style="endArrow=none;html=1;rounded=0;exitX=0;exitY=0.5;exitDx=0;exitDy=0;entryX=0.5;entryY=1;entryDx=0;entryDy=0;" edge="1" parent="1" source="kpMlG1sAVwpaGIiOpCB2-105" target="kpMlG1sAVwpaGIiOpCB2-6">
          <mxGeometry width="50" height="50" relative="1" as="geometry">
            <mxPoint x="157.5" y="425" as="sourcePoint" />
            <mxPoint x="207.5" y="375" as="targetPoint" />
          </mxGeometry>
        </mxCell>
        <mxCell id="kpMlG1sAVwpaGIiOpCB2-115" value="" style="endArrow=none;html=1;rounded=0;exitX=1;exitY=0.5;exitDx=0;exitDy=0;entryX=0.156;entryY=0.89;entryDx=0;entryDy=0;entryPerimeter=0;" edge="1" parent="1" source="kpMlG1sAVwpaGIiOpCB2-102" target="kpMlG1sAVwpaGIiOpCB2-6">
          <mxGeometry width="50" height="50" relative="1" as="geometry">
            <mxPoint x="110" y="450" as="sourcePoint" />
            <mxPoint x="160" y="400" as="targetPoint" />
          </mxGeometry>
        </mxCell>
        <mxCell id="kpMlG1sAVwpaGIiOpCB2-116" value="" style="endArrow=none;html=1;rounded=0;exitX=1;exitY=0;exitDx=0;exitDy=0;entryX=0;entryY=1;entryDx=0;entryDy=0;" edge="1" parent="1" source="kpMlG1sAVwpaGIiOpCB2-103" target="kpMlG1sAVwpaGIiOpCB2-6">
          <mxGeometry width="50" height="50" relative="1" as="geometry">
            <mxPoint x="110" y="410" as="sourcePoint" />
            <mxPoint x="160" y="360" as="targetPoint" />
          </mxGeometry>
        </mxCell>
        <mxCell id="kpMlG1sAVwpaGIiOpCB2-117" value="" style="endArrow=none;html=1;rounded=0;exitX=1;exitY=0.5;exitDx=0;exitDy=0;entryX=0;entryY=0.75;entryDx=0;entryDy=0;" edge="1" parent="1" source="kpMlG1sAVwpaGIiOpCB2-106" target="kpMlG1sAVwpaGIiOpCB2-6">
          <mxGeometry width="50" height="50" relative="1" as="geometry">
            <mxPoint x="100" y="390" as="sourcePoint" />
            <mxPoint x="150" y="340" as="targetPoint" />
          </mxGeometry>
        </mxCell>
        <mxCell id="kpMlG1sAVwpaGIiOpCB2-118" value="" style="endArrow=none;html=1;rounded=0;exitX=1;exitY=1;exitDx=0;exitDy=0;entryX=0;entryY=0.5;entryDx=0;entryDy=0;" edge="1" parent="1" source="kpMlG1sAVwpaGIiOpCB2-107" target="kpMlG1sAVwpaGIiOpCB2-6">
          <mxGeometry width="50" height="50" relative="1" as="geometry">
            <mxPoint x="110" y="385" as="sourcePoint" />
            <mxPoint x="160" y="335" as="targetPoint" />
          </mxGeometry>
        </mxCell>
        <mxCell id="kpMlG1sAVwpaGIiOpCB2-119" value="" style="endArrow=none;html=1;rounded=0;exitX=0;exitY=0;exitDx=0;exitDy=0;entryX=0.5;entryY=1;entryDx=0;entryDy=0;" edge="1" parent="1" source="kpMlG1sAVwpaGIiOpCB2-6" target="kpMlG1sAVwpaGIiOpCB2-108">
          <mxGeometry width="50" height="50" relative="1" as="geometry">
            <mxPoint x="160" y="346" as="sourcePoint" />
            <mxPoint x="210" y="296" as="targetPoint" />
          </mxGeometry>
        </mxCell>
        <mxCell id="kpMlG1sAVwpaGIiOpCB2-127" value="module_name" style="ellipse;whiteSpace=wrap;html=1;align=center;" vertex="1" parent="1">
          <mxGeometry x="435" y="505" width="87" height="27.5" as="geometry" />
        </mxCell>
        <mxCell id="kpMlG1sAVwpaGIiOpCB2-129" value="&lt;u&gt;module_id&lt;/u&gt;" style="ellipse;whiteSpace=wrap;html=1;align=center;" vertex="1" parent="1">
          <mxGeometry x="340" y="510" width="80" height="30" as="geometry" />
        </mxCell>
        <mxCell id="kpMlG1sAVwpaGIiOpCB2-130" value="dname" style="ellipse;whiteSpace=wrap;html=1;align=center;" vertex="1" parent="1">
          <mxGeometry x="140" y="532.5" width="88.75" height="30" as="geometry" />
        </mxCell>
        <mxCell id="kpMlG1sAVwpaGIiOpCB2-131" value="d_type" style="ellipse;whiteSpace=wrap;html=1;align=center;" vertex="1" parent="1">
          <mxGeometry x="137.5" y="602.5" width="100" height="40" as="geometry" />
        </mxCell>
        <mxCell id="kpMlG1sAVwpaGIiOpCB2-132" value="&lt;u&gt;degree_-id&lt;/u&gt;" style="ellipse;whiteSpace=wrap;html=1;align=center;" vertex="1" parent="1">
          <mxGeometry x="208.75" y="510" width="77.5" height="22.5" as="geometry" />
        </mxCell>
        <mxCell id="kpMlG1sAVwpaGIiOpCB2-134" style="edgeStyle=orthogonalEdgeStyle;rounded=0;orthogonalLoop=1;jettySize=auto;html=1;exitX=0.5;exitY=1;exitDx=0;exitDy=0;" edge="1" parent="1" source="kpMlG1sAVwpaGIiOpCB2-129" target="kpMlG1sAVwpaGIiOpCB2-129">
          <mxGeometry relative="1" as="geometry" />
        </mxCell>
        <mxCell id="kpMlG1sAVwpaGIiOpCB2-135" value="" style="endArrow=none;html=1;rounded=0;exitX=1;exitY=0;exitDx=0;exitDy=0;entryX=0.5;entryY=1;entryDx=0;entryDy=0;" edge="1" parent="1" source="kpMlG1sAVwpaGIiOpCB2-131" target="kpMlG1sAVwpaGIiOpCB2-11">
          <mxGeometry width="50" height="50" relative="1" as="geometry">
            <mxPoint x="187.5" y="652.5" as="sourcePoint" />
            <mxPoint x="237.5" y="602.5" as="targetPoint" />
          </mxGeometry>
        </mxCell>
        <mxCell id="kpMlG1sAVwpaGIiOpCB2-136" value="" style="endArrow=none;html=1;rounded=0;exitX=1;exitY=0.5;exitDx=0;exitDy=0;entryX=0.5;entryY=0;entryDx=0;entryDy=0;" edge="1" parent="1" source="kpMlG1sAVwpaGIiOpCB2-130" target="kpMlG1sAVwpaGIiOpCB2-11">
          <mxGeometry width="50" height="50" relative="1" as="geometry">
            <mxPoint x="167.5" y="597.5" as="sourcePoint" />
            <mxPoint x="217.5" y="547.5" as="targetPoint" />
          </mxGeometry>
        </mxCell>
        <mxCell id="kpMlG1sAVwpaGIiOpCB2-137" value="" style="endArrow=none;html=1;rounded=0;exitX=0.5;exitY=1;exitDx=0;exitDy=0;entryX=0.75;entryY=0;entryDx=0;entryDy=0;" edge="1" parent="1" source="kpMlG1sAVwpaGIiOpCB2-132" target="kpMlG1sAVwpaGIiOpCB2-11">
          <mxGeometry width="50" height="50" relative="1" as="geometry">
            <mxPoint x="192.5" y="587.5" as="sourcePoint" />
            <mxPoint x="242.5" y="537.5" as="targetPoint" />
          </mxGeometry>
        </mxCell>
        <mxCell id="kpMlG1sAVwpaGIiOpCB2-139" value="semester" style="ellipse;whiteSpace=wrap;html=1;align=center;" vertex="1" parent="1">
          <mxGeometry x="382" y="622.5" width="87" height="20" as="geometry" />
        </mxCell>
        <mxCell id="kpMlG1sAVwpaGIiOpCB2-140" value="" style="endArrow=none;html=1;rounded=0;exitX=0.5;exitY=0;exitDx=0;exitDy=0;entryX=0.25;entryY=1;entryDx=0;entryDy=0;" edge="1" parent="1" source="kpMlG1sAVwpaGIiOpCB2-139" target="kpMlG1sAVwpaGIiOpCB2-100">
          <mxGeometry width="50" height="50" relative="1" as="geometry">
            <mxPoint x="445" y="690" as="sourcePoint" />
            <mxPoint x="495" y="640" as="targetPoint" />
          </mxGeometry>
        </mxCell>
        <mxCell id="kpMlG1sAVwpaGIiOpCB2-141" value="" style="endArrow=none;html=1;rounded=0;exitX=0.5;exitY=0;exitDx=0;exitDy=0;entryX=0;entryY=1;entryDx=0;entryDy=0;" edge="1" parent="1" source="kpMlG1sAVwpaGIiOpCB2-100" target="kpMlG1sAVwpaGIiOpCB2-127">
          <mxGeometry width="50" height="50" relative="1" as="geometry">
            <mxPoint x="505" y="555" as="sourcePoint" />
            <mxPoint x="555" y="505" as="targetPoint" />
          </mxGeometry>
        </mxCell>
        <mxCell id="kpMlG1sAVwpaGIiOpCB2-142" value="" style="endArrow=none;html=1;rounded=0;exitX=0;exitY=0;exitDx=0;exitDy=0;entryX=0.5;entryY=1;entryDx=0;entryDy=0;" edge="1" parent="1" source="kpMlG1sAVwpaGIiOpCB2-100" target="kpMlG1sAVwpaGIiOpCB2-129">
          <mxGeometry width="50" height="50" relative="1" as="geometry">
            <mxPoint x="510" y="550" as="sourcePoint" />
            <mxPoint x="560" y="500" as="targetPoint" />
          </mxGeometry>
        </mxCell>
        <mxCell id="kpMlG1sAVwpaGIiOpCB2-144" value="HAS" style="shape=rhombus;double=1;perimeter=rhombusPerimeter;whiteSpace=wrap;html=1;align=center;" vertex="1" parent="1">
          <mxGeometry x="222.5" y="229.5" width="70" height="40" as="geometry" />
        </mxCell>
        <mxCell id="kpMlG1sAVwpaGIiOpCB2-145" value="dependent" style="shape=ext;margin=3;double=1;whiteSpace=wrap;html=1;align=center;" vertex="1" parent="1">
          <mxGeometry x="212.5" y="97" width="90" height="30" as="geometry" />
        </mxCell>
        <mxCell id="kpMlG1sAVwpaGIiOpCB2-146" value="" style="shape=link;html=1;rounded=0;exitX=0.5;exitY=1;exitDx=0;exitDy=0;entryX=0.5;entryY=0;entryDx=0;entryDy=0;" edge="1" parent="1" source="kpMlG1sAVwpaGIiOpCB2-145" target="kpMlG1sAVwpaGIiOpCB2-144">
          <mxGeometry width="100" relative="1" as="geometry">
            <mxPoint x="430" y="50" as="sourcePoint" />
            <mxPoint x="530" y="50" as="targetPoint" />
          </mxGeometry>
        </mxCell>
        <mxCell id="kpMlG1sAVwpaGIiOpCB2-147" value="" style="endArrow=none;html=1;rounded=0;exitX=0.75;exitY=0;exitDx=0;exitDy=0;entryX=0.5;entryY=1;entryDx=0;entryDy=0;" edge="1" parent="1" source="kpMlG1sAVwpaGIiOpCB2-6" target="kpMlG1sAVwpaGIiOpCB2-144">
          <mxGeometry width="50" height="50" relative="1" as="geometry">
            <mxPoint x="287.5" y="274.5" as="sourcePoint" />
            <mxPoint x="320" y="230" as="targetPoint" />
          </mxGeometry>
        </mxCell>
        <mxCell id="kpMlG1sAVwpaGIiOpCB2-149" value="dep_name" style="ellipse;whiteSpace=wrap;html=1;align=center;" vertex="1" parent="1">
          <mxGeometry x="330" y="670" width="80" height="20" as="geometry" />
        </mxCell>
        <mxCell id="kpMlG1sAVwpaGIiOpCB2-150" value="&lt;u&gt;dep_id&lt;/u&gt;" style="ellipse;whiteSpace=wrap;html=1;align=center;" vertex="1" parent="1">
          <mxGeometry x="323.75" y="710" width="77.5" height="30" as="geometry" />
        </mxCell>
        <mxCell id="kpMlG1sAVwpaGIiOpCB2-151" value="" style="endArrow=none;html=1;rounded=0;exitX=1;exitY=0.25;exitDx=0;exitDy=0;entryX=0;entryY=0.5;entryDx=0;entryDy=0;" edge="1" parent="1" source="kpMlG1sAVwpaGIiOpCB2-12" target="kpMlG1sAVwpaGIiOpCB2-149">
          <mxGeometry width="50" height="50" relative="1" as="geometry">
            <mxPoint x="323.75" y="680" as="sourcePoint" />
            <mxPoint x="373.75" y="630" as="targetPoint" />
          </mxGeometry>
        </mxCell>
        <mxCell id="kpMlG1sAVwpaGIiOpCB2-152" value="" style="endArrow=none;html=1;rounded=0;exitX=1;exitY=1;exitDx=0;exitDy=0;entryX=0;entryY=0.5;entryDx=0;entryDy=0;" edge="1" parent="1" source="kpMlG1sAVwpaGIiOpCB2-12" target="kpMlG1sAVwpaGIiOpCB2-150">
          <mxGeometry width="50" height="50" relative="1" as="geometry">
            <mxPoint x="282.5" y="760" as="sourcePoint" />
            <mxPoint x="332.5" y="710" as="targetPoint" />
          </mxGeometry>
        </mxCell>
        <mxCell id="kpMlG1sAVwpaGIiOpCB2-154" value="fname" style="ellipse;whiteSpace=wrap;html=1;align=center;" vertex="1" parent="1">
          <mxGeometry x="410" y="760" width="80" height="20" as="geometry" />
        </mxCell>
        <mxCell id="kpMlG1sAVwpaGIiOpCB2-155" value="&lt;u&gt;faculty_id&lt;/u&gt;" style="ellipse;whiteSpace=wrap;html=1;align=center;" vertex="1" parent="1">
          <mxGeometry x="407.5" y="810" width="82.5" height="20" as="geometry" />
        </mxCell>
        <mxCell id="kpMlG1sAVwpaGIiOpCB2-157" value="" style="endArrow=none;html=1;rounded=0;exitX=1;exitY=1;exitDx=0;exitDy=0;entryX=0;entryY=0;entryDx=0;entryDy=0;" edge="1" parent="1" source="kpMlG1sAVwpaGIiOpCB2-10" target="kpMlG1sAVwpaGIiOpCB2-155">
          <mxGeometry width="50" height="50" relative="1" as="geometry">
            <mxPoint x="340" y="900" as="sourcePoint" />
            <mxPoint x="390" y="850" as="targetPoint" />
          </mxGeometry>
        </mxCell>
        <mxCell id="kpMlG1sAVwpaGIiOpCB2-158" value="" style="endArrow=none;html=1;rounded=0;exitX=1;exitY=0;exitDx=0;exitDy=0;entryX=0;entryY=0.5;entryDx=0;entryDy=0;" edge="1" parent="1" source="kpMlG1sAVwpaGIiOpCB2-10" target="kpMlG1sAVwpaGIiOpCB2-154">
          <mxGeometry width="50" height="50" relative="1" as="geometry">
            <mxPoint x="370" y="780" as="sourcePoint" />
            <mxPoint x="420" y="730" as="targetPoint" />
          </mxGeometry>
        </mxCell>
        <mxCell id="kpMlG1sAVwpaGIiOpCB2-160" value="" style="endArrow=none;html=1;rounded=0;exitX=1;exitY=1;exitDx=0;exitDy=0;entryX=0;entryY=0.5;entryDx=0;entryDy=0;" edge="1" parent="1" source="kpMlG1sAVwpaGIiOpCB2-34" target="kpMlG1sAVwpaGIiOpCB2-159">
          <mxGeometry width="50" height="50" relative="1" as="geometry">
            <mxPoint x="450" y="440" as="sourcePoint" />
            <mxPoint x="500" y="390" as="targetPoint" />
          </mxGeometry>
        </mxCell>
        <mxCell id="kpMlG1sAVwpaGIiOpCB2-162" value="exam_id" style="ellipse;whiteSpace=wrap;html=1;align=center;fontStyle=4;" vertex="1" parent="1">
          <mxGeometry x="478" y="139" width="72" height="30" as="geometry" />
        </mxCell>
        <mxCell id="kpMlG1sAVwpaGIiOpCB2-163" value="exam_date" style="ellipse;whiteSpace=wrap;html=1;align=center;" vertex="1" parent="1">
          <mxGeometry x="382" y="169" width="85" height="20" as="geometry" />
        </mxCell>
        <mxCell id="kpMlG1sAVwpaGIiOpCB2-166" value="online_exam" style="whiteSpace=wrap;html=1;align=center;" vertex="1" parent="1">
          <mxGeometry x="640" y="119" width="85" height="20" as="geometry" />
        </mxCell>
        <mxCell id="kpMlG1sAVwpaGIiOpCB2-169" value="registered_date" style="ellipse;whiteSpace=wrap;html=1;align=center;" vertex="1" parent="1">
          <mxGeometry x="311.25" y="25.5" width="90" height="30" as="geometry" />
        </mxCell>
        <mxCell id="kpMlG1sAVwpaGIiOpCB2-171" value="" style="endArrow=none;html=1;rounded=0;exitX=1;exitY=0.5;exitDx=0;exitDy=0;entryX=0;entryY=0.5;entryDx=0;entryDy=0;" edge="1" parent="1" source="kpMlG1sAVwpaGIiOpCB2-169" target="kpMlG1sAVwpaGIiOpCB2-26">
          <mxGeometry width="50" height="50" relative="1" as="geometry">
            <mxPoint x="140" y="90" as="sourcePoint" />
            <mxPoint x="190" y="40" as="targetPoint" />
          </mxGeometry>
        </mxCell>
        <mxCell id="kpMlG1sAVwpaGIiOpCB2-172" value="" style="endArrow=none;html=1;rounded=0;exitX=0.75;exitY=0;exitDx=0;exitDy=0;entryX=1;entryY=1;entryDx=0;entryDy=0;" edge="1" parent="1" source="kpMlG1sAVwpaGIiOpCB2-8" target="kpMlG1sAVwpaGIiOpCB2-163">
          <mxGeometry width="50" height="50" relative="1" as="geometry">
            <mxPoint x="400.5" y="209.5" as="sourcePoint" />
            <mxPoint x="450.5" y="159.5" as="targetPoint" />
          </mxGeometry>
        </mxCell>
        <mxCell id="kpMlG1sAVwpaGIiOpCB2-173" value="" style="endArrow=none;html=1;rounded=0;exitX=1;exitY=0;exitDx=0;exitDy=0;entryX=0.5;entryY=1;entryDx=0;entryDy=0;" edge="1" parent="1" source="kpMlG1sAVwpaGIiOpCB2-8" target="kpMlG1sAVwpaGIiOpCB2-162">
          <mxGeometry width="50" height="50" relative="1" as="geometry">
            <mxPoint x="453" y="220" as="sourcePoint" />
            <mxPoint x="503" y="170" as="targetPoint" />
          </mxGeometry>
        </mxCell>
        <mxCell id="kpMlG1sAVwpaGIiOpCB2-175" value="is_under" style="shape=rhombus;perimeter=rhombusPerimeter;whiteSpace=wrap;html=1;align=center;" vertex="1" parent="1">
          <mxGeometry x="490" y="319.5" width="90" height="50" as="geometry" />
        </mxCell>
        <mxCell id="kpMlG1sAVwpaGIiOpCB2-177" value="" style="endArrow=none;html=1;rounded=0;entryX=1;entryY=1;entryDx=0;entryDy=0;exitX=1;exitY=0.25;exitDx=0;exitDy=0;edgeStyle=orthogonalEdgeStyle;" edge="1" parent="1" source="kpMlG1sAVwpaGIiOpCB2-100" target="kpMlG1sAVwpaGIiOpCB2-175">
          <mxGeometry width="50" height="50" relative="1" as="geometry">
            <mxPoint x="543" y="500" as="sourcePoint" />
            <mxPoint x="593" y="450" as="targetPoint" />
          </mxGeometry>
        </mxCell>
        <mxCell id="kpMlG1sAVwpaGIiOpCB2-178" value="" style="endArrow=none;html=1;rounded=0;exitX=1;exitY=1;exitDx=0;exitDy=0;entryX=0.5;entryY=0;entryDx=0;entryDy=0;edgeStyle=orthogonalEdgeStyle;" edge="1" parent="1" source="kpMlG1sAVwpaGIiOpCB2-8" target="kpMlG1sAVwpaGIiOpCB2-175">
          <mxGeometry width="50" height="50" relative="1" as="geometry">
            <mxPoint x="449.72999999999996" y="335.55" as="sourcePoint" />
            <mxPoint x="507.2701861769376" y="289.49735260992435" as="targetPoint" />
            <Array as="points">
              <mxPoint x="535" y="240" />
            </Array>
          </mxGeometry>
        </mxCell>
        <mxCell id="kpMlG1sAVwpaGIiOpCB2-159" value="attend_date" style="ellipse;whiteSpace=wrap;html=1;align=center;" vertex="1" parent="1">
          <mxGeometry x="450" y="442.5" width="72" height="25" as="geometry" />
        </mxCell>
        <mxCell id="kpMlG1sAVwpaGIiOpCB2-179" value="starting_time" style="ellipse;whiteSpace=wrap;html=1;align=center;" vertex="1" parent="1">
          <mxGeometry x="450" y="259.5" width="78.5" height="20" as="geometry" />
        </mxCell>
        <mxCell id="kpMlG1sAVwpaGIiOpCB2-181" value="seat_no" style="ellipse;whiteSpace=wrap;html=1;align=center;" vertex="1" parent="1">
          <mxGeometry x="740" y="162.75" width="80" height="30.5" as="geometry" />
        </mxCell>
        <mxCell id="kpMlG1sAVwpaGIiOpCB2-182" value="num_times_&lt;br&gt;attend" style="ellipse;whiteSpace=wrap;html=1;align=center;" vertex="1" parent="1">
          <mxGeometry x="720" y="70" width="72" height="42" as="geometry" />
        </mxCell>
        <mxCell id="kpMlG1sAVwpaGIiOpCB2-183" value="ending_time" style="ellipse;whiteSpace=wrap;html=1;align=center;" vertex="1" parent="1">
          <mxGeometry x="420" y="289.5" width="73" height="20" as="geometry" />
        </mxCell>
        <mxCell id="kpMlG1sAVwpaGIiOpCB2-184" value="hall_no" style="ellipse;whiteSpace=wrap;html=1;align=center;" vertex="1" parent="1">
          <mxGeometry x="732" y="209.5" width="60" height="20" as="geometry" />
        </mxCell>
        <mxCell id="kpMlG1sAVwpaGIiOpCB2-185" value="" style="endArrow=none;html=1;rounded=0;exitX=1;exitY=0;exitDx=0;exitDy=0;entryX=0;entryY=0.5;entryDx=0;entryDy=0;" edge="1" parent="1" source="kpMlG1sAVwpaGIiOpCB2-16" target="kpMlG1sAVwpaGIiOpCB2-181">
          <mxGeometry width="50" height="50" relative="1" as="geometry">
            <mxPoint x="697.5" y="177" as="sourcePoint" />
            <mxPoint x="747.5" y="127" as="targetPoint" />
          </mxGeometry>
        </mxCell>
        <mxCell id="kpMlG1sAVwpaGIiOpCB2-186" value="" style="endArrow=none;html=1;rounded=0;exitX=1;exitY=1;exitDx=0;exitDy=0;entryX=0;entryY=0;entryDx=0;entryDy=0;" edge="1" parent="1" source="kpMlG1sAVwpaGIiOpCB2-16" target="kpMlG1sAVwpaGIiOpCB2-184">
          <mxGeometry width="50" height="50" relative="1" as="geometry">
            <mxPoint x="690" y="259.5" as="sourcePoint" />
            <mxPoint x="740" y="209.5" as="targetPoint" />
          </mxGeometry>
        </mxCell>
        <mxCell id="kpMlG1sAVwpaGIiOpCB2-187" value="" style="endArrow=none;html=1;rounded=0;entryX=0.5;entryY=1;entryDx=0;entryDy=0;exitX=0.5;exitY=0;exitDx=0;exitDy=0;" edge="1" parent="1" source="kpMlG1sAVwpaGIiOpCB2-183" target="kpMlG1sAVwpaGIiOpCB2-8">
          <mxGeometry width="50" height="50" relative="1" as="geometry">
            <mxPoint x="360" y="325" as="sourcePoint" />
            <mxPoint x="410" y="275" as="targetPoint" />
          </mxGeometry>
        </mxCell>
        <mxCell id="kpMlG1sAVwpaGIiOpCB2-188" value="" style="endArrow=none;html=1;rounded=0;entryX=1;entryY=1;entryDx=0;entryDy=0;exitX=0.5;exitY=0;exitDx=0;exitDy=0;" edge="1" parent="1" source="kpMlG1sAVwpaGIiOpCB2-179" target="kpMlG1sAVwpaGIiOpCB2-8">
          <mxGeometry width="50" height="50" relative="1" as="geometry">
            <mxPoint x="461" y="349.5" as="sourcePoint" />
            <mxPoint x="511" y="299.5" as="targetPoint" />
          </mxGeometry>
        </mxCell>
        <mxCell id="kpMlG1sAVwpaGIiOpCB2-189" value="" style="endArrow=none;html=1;rounded=0;exitX=0.75;exitY=0;exitDx=0;exitDy=0;entryX=0;entryY=0.5;entryDx=0;entryDy=0;" edge="1" parent="1" source="kpMlG1sAVwpaGIiOpCB2-166" target="kpMlG1sAVwpaGIiOpCB2-182">
          <mxGeometry width="50" height="50" relative="1" as="geometry">
            <mxPoint x="660.5" y="116" as="sourcePoint" />
            <mxPoint x="710.5" y="66" as="targetPoint" />
          </mxGeometry>
        </mxCell>
        <mxCell id="kpMlG1sAVwpaGIiOpCB2-190" value="Attribute" style="ellipse;whiteSpace=wrap;html=1;align=center;" vertex="1" parent="1">
          <mxGeometry x="712" y="400" width="100" height="40" as="geometry" />
        </mxCell>
      </root>
    </mxGraphModel>
  </diagram>
</mxfile>
